<svg xmlns="http://www.w3.org/2000/svg" xmlns:xlink="http://www.w3.org/1999/xlink" viewBox="0 0 901 304"><defs><pattern id="Polka_Dots" data-name="Polka Dots" width="232.11" height="448.17" patternTransform="translate(23.06 41.39) scale(0.15)" patternUnits="userSpaceOnUse" viewBox="0 0 232.11 448.17"><rect width="232.11" height="448.17" fill="none"/><circle cx="232.11" cy="448.17" r="16.05" transform="translate(-272.07 425.1) rotate(-60)"/><circle cy="448.17" r="16.05" transform="translate(-388.12 224.08) rotate(-60)"/><circle cx="116.06" cy="224.08" r="16.05" transform="translate(-136.03 212.55) rotate(-60)"/><circle cx="232.11" r="16.05" transform="translate(116.06 201.01) rotate(-60)"/><circle r="16.05" transform="translate(0 0) rotate(-60)"/></pattern></defs><title>banner</title><g id="Layer_2" data-name="Layer 2"><g id="Layer_1-2" data-name="Layer 1"><rect width="901" height="304" fill-opacity="0.1" fill="url(#Polka_Dots)"/><path d="M153.43,88.48h0m-1.19,3.25L228,182.65,111.41,202.84l40.83-111.1m-.65-13.94a10,10,0,0,0-9.42,6.55L99,201.95a10,10,0,0,0,9.33,13.46,10.29,10.29,0,0,0,1.76-.15L233.5,193.88a10,10,0,0,0,6-16.26L159.24,81.39a9.87,9.87,0,0,0-7.65-3.6Z"/><text transform="translate(270 152.17)" font-size="90" font-family="Roboto-Light, Roboto" letter-spacing="0.02em">Wims</text><text transform="translate(277 197.17)" font-size="34" font-family="Roboto-LightItalic, Roboto" font-style="italic">What Is My Sho<tspan x="233.82" y="0" letter-spacing="0.01em">r</tspan><tspan x="245.7" y="0">tcut?</tspan></text></g></g></svg>