<svg xmlns="http://www.w3.org/2000/svg" viewBox="0 0 901 234"><title>banner-dark</title><g id="Layer_2" data-name="Layer 2"><g id="Layer_1-2" data-name="Layer 1"><rect width="901" height="234"/><path d="M138.43,60.12h0m-1.19,3.25L213,154.29,96.41,174.48l40.83-111.1m-.65-13.94A10,10,0,0,0,127.17,56L84,173.59A10,10,0,0,0,93.29,187a10.29,10.29,0,0,0,1.76-.15L218.5,165.52a10,10,0,0,0,6-16.26L144.24,53a9.87,9.87,0,0,0-7.65-3.6Z" fill="#fff"/><text transform="translate(267 128.39)" font-size="90" fill="#fff" font-family="Roboto-Light, Roboto" letter-spacing="0.02em">Wims</text><text transform="translate(274 173.39)" font-size="34" fill="#fff" font-family="Roboto-LightItalic, Roboto" font-style="italic">What Is My Sho<tspan x="233.82" y="0" letter-spacing="0.01em">r</tspan><tspan x="245.7" y="0">tcut?</tspan></text></g></g></svg>