<svg xmlns="http://www.w3.org/2000/svg" xmlns:xlink="http://www.w3.org/1999/xlink" viewBox="0 0 242 242"><defs><clipPath id="clip-path"><rect x="51.26" y="48.19" width="143.48" height="137.61" fill="none"/></clipPath></defs><title>dark</title><g id="Layer_2" data-name="Layer 2"><g id="Layer_1-2" data-name="Layer 1"><rect width="242" height="242" rx="40" ry="40"/><g id="Wims_light" data-name="Wims light"><g clip-path="url(#clip-path)"><g clip-path="url(#clip-path)"><path d="M106.37,58.89h0m-1.19,3.25L181,153,64.34,173.24l40.83-111.1m-.65-13.94a10,10,0,0,0-9.42,6.55L51.89,172.35a10,10,0,0,0,9.33,13.46,10.33,10.33,0,0,0,1.76-.15l123.46-21.37a10,10,0,0,0,6-16.26L112.17,51.79a9.87,9.87,0,0,0-7.65-3.6" fill="#fff"/></g></g></g></g></g></svg>